# xmcd
#
# Track frame offsets:
#	150
#	15524
#	33373
#	48150
#	64126
#	78376
#	93976
#	107777
#	120079
#	134105
#
# Disc length: 2011
#
# Revision: 1
# Processed by: cddbd v1.5.1PL0 Copyright (c) Steve Scherf et al.
# Submitted via: VisiTrax 2.9.10.228 - For more info visit www.synapsa.com
# Normalized: r0:DSETVAR1
#
DISCID=7807d90a
DTITLE=Various Artist - CHT9809
DYEAR=1900
DGENRE=Karaoke
TTITLE0=Brooks and Dunn - How Long Gone
TTITLE1=McEntire, Reba - Forever Love
TTITLE2=Messina, Jo Dee - I'm Alright
TTITLE3=Strait, George - True
TTITLE4=Travis, Randy - Hole, The
TTITLE5=Diamond Rio - You're Gone
TTITLE6=Tillis, Pam - I Said A Prayer For You
TTITLE7=Diffie, Joe - Texas Size Heartache
TTITLE8=Loveless, Patty - High On Love
TTITLE9=Yoakam, Dwight - Things Change
EXTD=
EXTT0=
EXTT1=
EXTT2=
EXTT3=
EXTT4=
EXTT5=
EXTT6=
EXTT7=
EXTT8=
EXTT9=
PLAYORDER=
